<svg width="287" height="216" viewBox="0 0 287 216" fill="none" xmlns="http://www.w3.org/2000/svg">
<path d="M156.982 26.5268C157.485 26.71 157.863 26.8016 158.171 26.8016C158.823 26.8016 159.178 26.4351 159.646 25.874C159.772 25.7252 159.909 25.5534 160.081 25.3816C161.659 23.6983 162.631 21.2248 162.986 18.0299C163.226 15.8656 163.02 3.48674 160.31 1.15068C159.921 0.818589 159.509 0.68117 159.063 0.749878C159.04 0.749878 159.029 0.749878 159.006 0.749878L158.937 0.761332C158.915 0.761332 158.892 0.772784 158.857 0.784235C158.857 0.784235 158.835 0.784235 158.823 0.784235C158.514 0.841492 158.217 0.669719 157.874 0.463596C157.279 0.108605 156.536 -0.326542 155.518 0.371988C154.752 0.910199 154.272 2.03242 154.066 3.81883C154.02 4.25398 153.997 4.66622 153.975 5.06702C153.929 5.90296 153.883 6.69311 153.597 7.58631C153.254 8.63983 153.243 9.40707 153.231 10.2087C153.231 10.5636 153.231 10.9415 153.186 11.3652C153.117 12.2012 152.957 13.1974 152.785 14.251C152.179 17.9268 151.425 22.4959 154.123 24.8091C154.661 25.2671 156.239 26.229 156.993 26.5153L156.982 26.5268Z" fill="#F68B1F"/>
<path d="M186.977 29.2636C187.411 29.6415 187.891 30.0767 188.314 30.695C188.497 30.9699 188.566 31.302 188.623 31.6111C188.749 32.2524 188.898 32.9853 190.167 33.1571C190.258 33.1685 190.338 33.18 190.43 33.18C191.619 33.18 192.66 32.115 193.392 31.3707C194.318 30.4202 195.027 29.298 195.713 28.1987C196.045 27.6719 196.388 27.1222 196.742 26.6184C198.503 24.1105 200.001 21.3393 201.099 19.2094C201.774 17.9039 201.831 17.6978 201.899 16.4267V16.2778L201.785 16.1862C201.419 15.9229 201.328 15.6137 201.476 15.2129C201.648 14.8121 201.751 14.3884 201.785 13.9647C201.819 13.8731 201.808 13.77 201.785 13.667L201.762 13.5524C201.465 12.8768 201.373 12.6821 201.133 12.7508C200.744 12.4302 200.264 12.2012 199.853 12.0523C198.503 11.5599 196.902 11.5027 196.033 11.9149C195.313 12.2584 194.684 13.3578 194.169 14.2281C193.975 14.5601 193.803 14.8693 193.655 15.064C193.243 15.648 192.82 16.2206 192.408 16.7932C191.814 17.6062 191.219 18.4192 190.647 19.2437C189.572 20.7668 188.555 22.3585 187.583 23.893C187.251 24.4197 186.919 24.9465 186.576 25.4732C185.181 27.649 185.97 28.3475 186.977 29.2293V29.2636Z" fill="#F68B1F"/>
<path d="M101.876 55.3153C102.253 54.8916 102.688 54.3992 103.305 53.9755C103.58 53.7923 103.9 53.7236 104.22 53.6663C104.861 53.5404 105.592 53.3915 105.764 52.1204C105.935 50.815 104.769 49.6698 103.98 48.9026C103.031 47.9751 101.91 47.2651 100.812 46.578C100.286 46.2459 99.7376 45.9024 99.2344 45.5474C96.7187 43.7724 93.9628 42.2723 91.8359 41.173C90.5323 40.4974 90.3264 40.4401 89.0571 40.3714H88.9085L88.817 40.4859C88.554 40.8523 88.2452 40.9439 87.845 40.7951C87.4448 40.6233 87.0217 40.5203 86.5986 40.4859C86.5071 40.4515 86.4042 40.463 86.3012 40.4859L86.1983 40.5088C85.5237 40.8065 85.3293 40.8981 85.3979 41.1386C85.0777 41.528 84.849 42.0089 84.7003 42.4212C84.2086 43.7724 84.1514 45.3756 84.5631 46.2345C84.9062 46.9559 86.0039 47.5857 86.873 48.101C87.1932 48.2842 87.5019 48.4675 87.7078 48.6163C88.2795 49.0286 88.8513 49.4408 89.4231 49.8531C90.2464 50.4485 91.0697 51.044 91.893 51.6395C93.4139 52.7159 95.0034 53.7351 96.5472 54.7084C97.0732 55.0405 97.5992 55.3726 98.1138 55.7161C98.9486 56.2543 99.5661 56.4719 100.069 56.4719C100.858 56.4719 101.327 55.9337 101.865 55.3153H101.876Z" fill="#F68B1F"/>
<path d="M231.905 46.349C232.489 46.0512 233.083 45.742 233.655 45.4329C233.918 45.284 234.33 45.1351 234.764 44.9634C235.85 44.5397 236.983 44.1045 237.246 43.4518C237.794 42.0776 236.971 41.6425 236.319 41.2989C236.091 41.173 235.839 41.047 235.667 40.8867C235.073 40.337 234.97 40.0164 234.741 39.3751C234.684 39.2148 234.627 39.043 234.547 38.8484L234.513 38.7682L234.444 38.7224C234.055 38.459 233.792 38.1956 233.529 37.9437C233.015 37.4399 232.569 37.0162 231.505 36.81C229.881 36.4894 228.806 37.1536 227.571 37.9208L227.354 38.0582C225.193 39.3866 223.123 40.8294 221.111 42.2379L219.795 43.154C219.327 43.4747 218.801 43.7724 218.252 44.0931C216.491 45.0893 214.501 46.223 214.272 48.4675C214.238 48.7537 214.227 48.9942 214.204 49.2118C214.135 49.9561 214.101 50.3684 213.803 51.1471C213.735 51.3188 213.598 51.525 213.46 51.7311C213.026 52.3724 212.443 53.2541 213.403 54.2389C213.861 54.7084 214.501 54.9031 215.233 54.9031C217.04 54.9031 219.395 53.758 220.859 53.048C221.145 52.9106 221.408 52.7846 221.602 52.693C223.306 51.9257 224.781 50.8608 226.211 49.8302C227.228 49.0973 228.28 48.3415 229.401 47.6888C230.201 47.2307 231.071 46.7841 231.894 46.3604L231.905 46.349Z" fill="#F68B1F"/>
<path d="M115.564 25.5076C116.01 26.0802 116.433 26.6184 116.799 27.1108C117.531 28.107 118.331 29.0575 119.097 29.985C119.738 30.7523 120.401 31.5424 121.007 32.3326C121.75 33.3059 122.368 33.6037 123.008 33.6037C123.466 33.6037 123.923 33.4548 124.415 33.283C124.952 33.0998 125.57 32.8937 126.336 32.8135C128.063 32.6303 129.046 32.1952 129.446 31.4279C129.835 30.6721 129.618 29.6301 128.76 28.1643C128.177 27.1566 127.594 26.1031 127.01 25.0381C125.089 21.5683 123.123 17.9841 120.561 15.1098C120.435 14.8922 120.046 14.4914 119.086 13.5982L118.972 13.5295C118.365 13.3692 117.073 13.5639 115.918 13.77L115.598 13.8273C115.461 13.8502 115.312 13.8731 115.175 13.8845C114.352 13.999 113.506 14.1021 112.831 15.0411C112.03 16.1519 111.424 18.6826 111.87 19.8392C112.568 21.6485 114.18 23.6983 115.598 25.5076H115.564Z" fill="#F68B1F"/>
<path d="M212.763 69.2974C212.02 68.0377 211.253 66.7323 210.556 65.3925C210.213 64.8085 209.927 64.1557 209.652 63.5259C209.126 62.3121 208.578 61.0524 207.571 60.2508C201.293 50.8837 190.178 42.9823 185.913 41.0356C175.953 35.4359 164.678 33.0426 152.419 33.9472C144.358 34.9091 135.964 36.2375 129.698 40.8065C128.703 41.2875 127.719 42.0547 126.782 42.7876C126.382 43.0968 125.993 43.406 125.593 43.6923C119.669 48.582 114.809 54.6855 110.098 60.5944L108.668 62.3808C104.963 67.3163 102.07 72.7099 100.081 78.4012C99.5661 79.9127 99.7376 80.4395 100.664 81.8709C101.167 82.6496 102.093 82.8099 102.917 82.9702C103.351 83.0504 103.763 83.1305 104.152 83.2909C104.403 83.3481 104.632 83.4054 104.849 83.4512C106.038 83.7489 106.816 83.9436 108.245 83.4512C109.629 82.913 110.692 81.0349 111.184 79.5921C111.39 78.9966 111.596 78.4012 111.802 77.8057C113.243 73.626 114.592 69.6638 117.245 66.1368L118.285 64.8314C119.257 63.6175 120.229 62.3922 121.247 61.144C122.276 59.4607 123.294 57.8346 124.403 56.3345L124.438 56.2772C125.135 54.5252 126.679 53.5175 128.326 52.441C129.057 51.9601 129.812 51.4677 130.487 50.9066C130.921 50.5859 131.413 50.2882 132.065 49.9447L132.476 49.624C133.266 49.0171 134.077 48.3758 134.935 47.9636C140.184 44.1389 147.228 43.0281 154.02 42.215C156.01 41.757 166.05 42.3296 166.119 42.3296C171.07 43.2228 175.907 45.0893 181.831 48.4216C186.119 50.0821 196.651 59.7126 200.367 64.3962C201.133 65.0031 201.556 65.9765 202.014 67.0071C202.254 67.5568 202.505 68.1293 202.803 68.6446C203.706 70.3509 204.69 73.2481 205.639 76.0536C206.737 79.2829 207.777 82.3404 208.761 83.9436C209.298 84.6994 209.961 84.9169 210.602 84.9169C211.139 84.9169 211.654 84.7566 212.042 84.6421C212.214 84.5849 212.374 84.5391 212.477 84.5276C212.717 84.5047 213.003 84.4818 213.323 84.4589C215.599 84.2871 217.508 84.0695 217.68 83.0733C217.909 81.6304 218.103 80.4967 217.383 78.7332C216.171 75.1375 214.432 72.1716 212.751 69.3088L212.763 69.2974Z" fill="#F68B1F"/>
<path d="M148.76 62.4495C149.023 62.4495 149.275 62.4151 149.503 62.3579C150.853 62.0372 152.351 61.3502 153.403 60.5829C154.878 59.4951 158 55.9108 157.6 53.3114C157.691 53.1281 157.542 52.8648 157.302 52.4296L157.268 52.3723L157.211 52.338C156.948 52.1662 156.753 51.8799 156.548 51.5822C156.285 51.2043 156.01 50.815 155.576 50.5974C154.901 50.2653 153.506 50.4371 153.231 50.4714C151.882 50.6546 150.407 51.399 148.863 52.6586C147.205 54.0099 144.758 57.8575 145.764 60.0676C146.61 61.9456 147.765 62.4609 148.76 62.4609V62.4495Z" fill="#F68B1F"/>
<path d="M172.614 67.6484C172.683 67.6484 172.751 67.6484 172.831 67.6484C173.483 67.6484 174.192 67.385 174.935 66.8811C175.644 66.4002 175.77 66.1597 176.044 65.633C176.113 65.4955 176.193 65.3467 176.296 65.152C176.582 64.6252 176.994 64.2244 177.382 63.8351C178.057 63.1709 178.755 62.4838 178.812 61.1898C178.88 59.9073 178.377 58.1553 177.611 57.0216C177.291 56.5406 176.834 56.1856 176.399 55.8306C175.804 55.3611 175.244 54.9145 175.061 54.2389L174.992 54.1244C174.821 53.9526 174.661 53.8038 174.524 53.7121C173.46 52.9106 172.465 53.048 171.768 53.3228C169.789 54.1129 168.166 57.1017 168.131 59.0485C168.097 61.041 168.806 62.6442 169.595 64.2359C169.721 64.4764 169.824 64.7283 169.938 64.9917C170.441 66.1712 171.024 67.511 172.625 67.6484H172.614Z" fill="#F68B1F"/>
<path d="M195.576 70.4883C194.65 69.9501 193.449 69.9386 192.168 70.4654C190.933 70.9693 189.778 71.8625 188.646 72.7213C187.686 73.4542 186.691 74.21 185.661 74.7253C183.066 76.0307 180.378 76.9583 178.08 77.6912C171.368 79.8326 166.325 80.783 160.413 79.3058C151.699 77.1415 136.776 71.6105 134.638 58.9568V58.8881L134.581 58.8309C133.952 58.0407 133.22 57.6743 132.362 57.7545C130.567 57.9148 128.977 60.0218 128.371 61.1211C127.033 63.5717 128.348 65.4841 129.618 67.3277C129.881 67.7171 130.155 68.1064 130.395 68.5072C133.746 73.9351 138.697 77.0843 143.489 79.844C147.479 82.1457 153.494 85.6269 159.269 85.6269C160.664 85.6269 162.048 85.7758 163.374 85.9247C164.724 86.0735 166.119 86.2224 167.56 86.2224C167.811 86.2224 168.074 86.2224 168.326 86.2109C171.082 86.0964 173.769 85.6613 176.765 84.8139C180.79 83.6917 184.552 81.7564 188.189 79.8784C189.229 79.3402 190.281 78.8019 191.333 78.2866C191.551 78.1836 191.791 78.0691 192.054 77.9431C194.169 76.9468 197.371 75.4582 197.062 73.019C196.914 71.851 196.399 70.9693 195.553 70.4883H195.576Z" fill="#F68B1F"/>
<path d="M247.674 74.2329L247.572 74.1985C247.206 74.1642 246.977 73.9123 246.702 73.6145C246.462 73.3511 246.188 73.0419 245.776 72.9045C245.124 72.687 244.221 72.8702 243.432 73.0305C243.066 73.1107 242.712 73.1794 242.449 73.2023C241.374 73.2824 240.573 73.3282 239.818 73.3626C238.629 73.4198 237.6 73.4771 235.908 73.6603C235.45 73.7061 234.89 73.729 234.295 73.7519C232.306 73.8321 229.824 73.9352 228.658 75.0688C227.731 75.9735 226.371 79.2715 227.011 80.5884C227.594 81.7793 228.932 82.0427 230.293 82.0427C230.922 82.0427 231.551 81.9854 232.111 81.9396C232.431 81.9053 232.74 81.8824 233.015 81.8709C234.547 81.7907 235.633 81.7106 236.731 81.6304C237.817 81.5503 238.915 81.4701 240.436 81.3899C240.688 81.3785 240.951 81.367 241.225 81.3556C242.917 81.2869 245.021 81.1953 246.497 80.4395C247.606 79.8669 248.887 77.9317 248.887 76.2941C248.887 75.3551 248.463 74.6451 247.686 74.2443L247.674 74.2329Z" fill="#F68B1F"/>
<path d="M90.0977 74.4161C88.634 73.6603 86.53 73.5802 84.8376 73.5C84.5631 73.5 84.2887 73.4771 84.0371 73.4656C82.5162 73.3855 81.6357 73.3053 80.7895 73.2252C79.9433 73.145 79.0628 73.0649 77.5305 72.9847C77.256 72.9732 76.9473 72.9389 76.6271 72.916C74.8318 72.7557 72.3618 72.5381 71.527 74.2672C70.8981 75.5612 72.2703 78.905 73.1737 79.7868C74.3858 80.9663 75.3578 81.035 76.6957 81.1151C77.0273 81.138 77.3818 81.1609 77.7706 81.2067C79.3715 81.3785 80.9839 81.4358 82.5505 81.493C83.694 81.5388 84.8833 81.5732 86.0497 81.6648C86.3241 81.6877 86.6672 81.7564 87.0445 81.8366C87.582 81.9396 88.1538 82.0656 88.6798 82.0656C88.9428 82.0656 89.1829 82.0312 89.4002 81.9625C89.8119 81.8251 90.0863 81.5159 90.3264 81.2525C90.5895 80.9548 90.8181 80.7029 91.1955 80.6685L91.2984 80.6342C92.0875 80.2334 92.4991 79.5234 92.5106 78.5844C92.5106 76.9468 91.2298 75.0116 90.1206 74.439L90.0977 74.4161Z" fill="#F68B1F"/>
<path d="M22.6073 83.1992C24.0139 82.9015 25.306 82.4091 26.4381 81.722C27.5816 81.0349 28.5193 80.1074 29.2397 78.9852C29.9602 77.8515 30.3261 76.4201 30.3261 74.7482C30.3261 73.729 30.1546 72.7557 29.8229 71.851C29.4913 70.9464 29.011 70.1448 28.3935 69.4691C27.776 68.7935 27.0328 68.2209 26.1751 67.7858C25.5119 67.4423 24.7686 67.1903 23.9796 67.0186C25.3403 66.4918 26.4724 65.7131 27.3415 64.6825C28.3592 63.4801 28.8738 61.9571 28.8738 60.1478C28.8738 58.3385 28.5193 56.9872 27.8218 55.9223C27.1242 54.8687 26.2094 54.0328 25.1002 53.4488C24.0024 52.8648 22.7331 52.4754 21.3495 52.2807C19.9772 52.0861 18.5936 51.9945 17.2442 51.9945H5.3974V83.6573H18.3878C19.7714 83.6573 21.1894 83.5084 22.5959 83.2107L22.6073 83.1992ZM12.7159 58.2469H17.1642C17.6788 58.2469 18.2162 58.2927 18.7537 58.3957C19.2911 58.4988 19.7714 58.6591 20.1831 58.8767C20.5833 59.0943 20.9264 59.4035 21.1779 59.7928C21.4295 60.1821 21.5553 60.686 21.5553 61.2815C21.5553 61.8769 21.4409 62.3579 21.2122 62.7587C20.9835 63.1709 20.6748 63.4916 20.2974 63.7435C19.9086 63.9954 19.4627 64.1786 18.9824 64.2932C18.4907 64.4077 17.9761 64.4649 17.4729 64.4649H12.7159V58.2469ZM12.7159 70.7288H17.6902C18.2391 70.7288 18.8337 70.7746 19.4627 70.8547C20.0916 70.9349 20.6748 71.0952 21.2122 71.3243C21.7383 71.5418 22.1728 71.8739 22.5159 72.2976C22.8475 72.7099 23.019 73.271 23.019 73.9466C23.019 74.5764 22.8932 75.1261 22.6302 75.5498C22.3672 75.9964 22.0241 76.3514 21.6125 76.6262C21.2008 76.901 20.732 77.0957 20.2174 77.2102C19.6914 77.3247 19.1654 77.382 18.6622 77.382H12.7159V70.7288Z" fill="#0072BC"/>
<path d="M36.4325 79.9471C37.9419 81.3899 39.7601 82.5122 41.8299 83.2794C43.8996 84.0466 46.1867 84.436 48.6452 84.436C50.8065 84.436 52.9449 83.9894 54.9803 83.0962C57.0386 82.203 58.7539 80.7945 60.0918 78.9165L60.2176 78.7447L54.1341 74.1985L54.0083 74.3932C53.3222 75.4124 52.4531 76.2254 51.4011 76.7865C50.3491 77.3591 49.1255 77.6454 47.7647 77.6454C46.564 77.6454 45.4434 77.4049 44.4028 76.9125C43.3622 76.4315 42.4474 75.7445 41.6812 74.8742C40.9151 74.0039 40.2975 72.9618 39.8516 71.7709C39.4056 70.5799 39.1883 69.2516 39.1883 67.8087C39.1883 66.3658 39.417 65.0718 39.8516 63.8695C40.2975 62.6671 40.915 61.6135 41.7041 60.7432C42.4817 59.8729 43.4194 59.1859 44.4943 58.7049C45.5577 58.224 46.7356 57.972 47.9934 57.972C49.2513 57.972 50.3605 58.1896 51.3211 58.6133C52.2702 59.037 53.0821 59.6554 53.7339 60.4455L53.8711 60.6173L59.4972 56.0253L59.36 55.8535C58.6739 54.9832 57.8848 54.2504 57.0272 53.6434C56.1581 53.048 55.2548 52.567 54.3171 52.212C53.3908 51.857 52.4188 51.5937 51.4583 51.4333C50.4863 51.273 49.5486 51.1929 48.6681 51.1929C46.221 51.1929 43.9225 51.5822 41.8527 52.3495C39.783 53.1167 37.9648 54.2389 36.4553 55.6818C34.9459 57.1246 33.7452 58.8881 32.899 60.9379C32.0528 62.9877 31.6297 65.2894 31.6297 67.8087C31.6297 70.328 32.0528 72.6412 32.899 74.6795C33.7452 76.7293 34.9345 78.4928 36.4553 79.9356L36.4325 79.9471Z" fill="#0072BC"/>
<path d="M15.3689 181.211H35.0831V201.148H45.2261V155.022H35.0831V172.222H15.3689V155.022H5.21444V201.148H15.3689V181.211Z" fill="#0072BC"/>
<path d="M68.5767 201.926C71.001 201.926 73.288 201.537 75.4378 200.758C77.5877 199.98 79.4516 198.857 81.0296 197.403C82.6077 195.949 83.8541 194.197 84.7689 192.158C85.6838 190.12 86.1297 187.841 86.1297 185.322C86.1297 182.803 85.6723 180.524 84.7689 178.486C83.8541 176.447 82.6077 174.695 81.0296 173.241C79.4516 171.787 77.5762 170.664 75.4378 169.886C73.288 169.107 71.001 168.718 68.5767 168.718C66.1525 168.718 63.8654 169.107 61.7156 169.886C59.5658 170.664 57.7019 171.787 56.1238 173.241C54.5343 174.695 53.2879 176.447 52.3845 178.486C51.4697 180.524 51.0237 182.803 51.0237 185.322C51.0237 187.841 51.4812 190.12 52.3845 192.158C53.2993 194.197 54.5458 195.949 56.1238 197.403C57.7019 198.857 59.5658 199.98 61.7156 200.758C63.8654 201.537 66.1525 201.926 68.5767 201.926ZM62.8248 179.516C64.1971 178.039 66.1067 177.306 68.5882 177.306C71.0696 177.306 72.9793 178.05 74.3515 179.516C75.7123 180.993 76.3984 182.929 76.3984 185.311C76.3984 187.692 75.7123 189.628 74.3515 191.105C72.9793 192.582 71.0696 193.315 68.5882 193.315C66.1067 193.315 64.1971 192.582 62.8248 191.105C61.4641 189.628 60.7779 187.692 60.7779 185.311C60.7779 182.929 61.4641 180.993 62.8248 179.516Z" fill="#0072BC"/>
<path d="M114.478 196.556C115.369 195.227 115.815 193.544 115.815 191.506C115.815 189.467 115.415 187.91 114.615 186.719C113.814 185.528 112.797 184.578 111.562 183.891C110.327 183.192 109 182.688 107.594 182.356C106.187 182.035 104.861 181.726 103.626 181.44C102.391 181.154 101.373 180.833 100.572 180.467C99.7719 180.1 99.3717 179.528 99.3717 178.737C99.3717 177.787 99.7605 177.111 100.538 176.722C101.316 176.333 102.116 176.138 102.939 176.138C105.284 176.138 107.17 177.031 108.6 178.806L114.58 172.874C113.105 171.306 111.31 170.229 109.183 169.622C107.056 169.015 104.952 168.706 102.871 168.706C101.224 168.706 99.6004 168.912 97.988 169.325C96.3871 169.737 94.9577 170.378 93.7227 171.248C92.4877 172.119 91.4928 173.229 90.7267 174.569C89.9719 175.92 89.5831 177.524 89.5831 179.39C89.5831 181.383 89.9834 182.986 90.7838 184.177C91.5843 185.368 92.602 186.295 93.837 186.948C95.072 187.601 96.3985 188.093 97.805 188.414C99.2116 188.734 100.538 189.044 101.773 189.33C103.008 189.616 104.026 189.96 104.826 190.372C105.627 190.784 106.027 191.403 106.027 192.227C106.027 193.097 105.57 193.693 104.666 194.014C103.751 194.334 102.734 194.506 101.613 194.506C100.138 194.506 98.8456 194.208 97.7479 193.624C96.6386 193.04 95.6324 192.181 94.7175 191.048L88.7941 197.632C90.3493 199.235 92.259 200.358 94.5231 200.987C96.7759 201.617 99.0057 201.938 101.224 201.938C102.917 201.938 104.632 201.777 106.359 201.445C108.097 201.125 109.652 200.552 111.047 199.751C112.442 198.949 113.574 197.884 114.466 196.556H114.478Z" fill="#0072BC"/>
<path d="M136.17 169.164C135.175 169.473 134.249 169.863 133.403 170.332C132.557 170.813 131.825 171.34 131.196 171.924C130.567 172.508 130.064 173.092 129.663 173.653H129.538V169.485H120.561V216H130.315V197.758H130.441C131.573 199.281 133.014 200.358 134.764 200.987C136.525 201.617 138.411 201.938 140.458 201.938C142.711 201.938 144.724 201.468 146.507 200.541C148.28 199.613 149.789 198.354 151.024 196.796C152.259 195.227 153.208 193.441 153.883 191.426C154.558 189.41 154.889 187.292 154.889 185.07C154.889 182.677 154.523 180.49 153.78 178.486C153.048 176.493 151.996 174.764 150.624 173.31C149.263 171.855 147.617 170.722 145.718 169.92C143.809 169.118 141.682 168.718 139.338 168.718C138.205 168.718 137.142 168.866 136.147 169.176L136.17 169.164ZM145.147 185.311C145.147 187.704 144.461 189.628 143.1 191.105C141.739 192.582 139.818 193.315 137.336 193.315C134.855 193.315 132.945 192.582 131.585 191.105C130.212 189.628 129.538 187.692 129.538 185.311C129.538 182.929 130.224 180.993 131.585 179.516C132.945 178.039 134.866 177.306 137.336 177.306C139.806 177.306 141.728 178.05 143.1 179.516C144.461 180.993 145.147 182.929 145.147 185.311Z" fill="#0072BC"/>
<path d="M164.472 153.854C162.905 153.854 161.579 154.403 160.47 155.514C159.361 156.625 158.812 157.953 158.812 159.522C158.812 161.091 159.361 162.419 160.47 163.53C161.579 164.641 162.905 165.191 164.472 165.191C166.039 165.191 167.365 164.641 168.474 163.53C169.584 162.419 170.133 161.091 170.133 159.522C170.133 157.953 169.584 156.625 168.474 155.514C167.365 154.403 166.039 153.854 164.472 153.854Z" fill="#0072BC"/>
<path d="M169.343 169.485H159.589V201.148H169.343V169.485Z" fill="#0072BC"/>
<path d="M178.389 160.106V169.485H172.145V177.306H178.389V192.353C178.389 194.094 178.686 195.571 179.269 196.785C179.852 197.999 180.664 198.995 181.705 199.751C182.746 200.506 183.958 201.067 185.353 201.411C186.736 201.755 188.257 201.938 189.904 201.938C191.036 201.938 192.18 201.869 193.357 201.743C194.524 201.617 195.656 201.354 196.742 200.964V192.823C196.308 193.212 195.667 193.464 194.821 193.567C193.975 193.681 193.289 193.727 192.774 193.727C191.734 193.727 190.899 193.59 190.27 193.304C189.641 193.017 189.172 192.616 188.875 192.101C188.566 191.574 188.372 190.956 188.292 190.246C188.2 189.525 188.166 188.734 188.166 187.864V177.306H196.754V169.485H188.166V160.106H178.389Z" fill="#0072BC"/>
<path d="M226.359 172.932C225.25 171.546 223.775 170.493 221.934 169.771C220.093 169.05 217.737 168.695 214.878 168.695C212.271 168.695 209.767 169.118 207.331 169.966C204.907 170.813 202.78 172.084 200.962 173.779L206.165 179.127C207.205 177.959 208.383 177.031 209.71 176.356C211.036 175.68 212.5 175.348 214.101 175.348C215.793 175.348 217.257 175.863 218.492 176.882C219.727 177.902 220.344 179.287 220.344 181.016C218.995 181.016 217.531 181.039 215.953 181.085C214.375 181.131 212.786 181.257 211.208 181.474C209.63 181.692 208.097 182.024 206.622 182.482C205.147 182.94 203.832 183.581 202.688 184.406C201.534 185.23 200.63 186.272 199.955 187.532C199.281 188.792 198.949 190.338 198.949 192.158C198.949 193.762 199.246 195.182 199.864 196.395C200.47 197.609 201.293 198.628 202.334 199.453C203.375 200.277 204.575 200.896 205.947 201.308C207.308 201.72 208.738 201.926 210.213 201.926C212.203 201.926 214.101 201.56 215.908 200.816C217.703 200.083 219.144 198.857 220.23 197.163H220.356V201.136H229.332V185.047C229.332 182.402 229.115 180.066 228.681 178.039C228.246 176.024 227.48 174.317 226.371 172.92L226.359 172.932ZM220.344 189.353C220.344 190.349 220.139 191.219 219.727 191.964C219.315 192.708 218.755 193.315 218.069 193.784C217.371 194.265 216.582 194.632 215.69 194.895C214.798 195.159 213.883 195.285 212.923 195.285C211.837 195.285 210.796 194.998 209.801 194.437C208.806 193.876 208.303 193.006 208.303 191.826C208.303 190.738 208.658 189.891 209.378 189.284C210.098 188.677 210.956 188.219 211.985 187.921C213.003 187.624 214.066 187.429 215.176 187.372C216.285 187.303 217.2 187.269 217.943 187.269H220.344V189.353Z" fill="#0072BC"/>
<path d="M244.152 151.896H234.398V201.148H244.152V151.896Z" fill="#0072BC"/>
<path d="M256.399 156.797L254.776 152.64H253.381V158.102H254.261V153.51H254.284L256.091 158.102H256.685L258.481 153.51H258.515V158.102H259.384V152.64H258.035L256.399 156.797Z" fill="#0072BC"/>
<path d="M247.96 153.51H249.687V158.102H250.568V153.51H252.283V152.64H247.96V153.51Z" fill="#0072BC"/>
<path d="M14.8886 142.368C17.9189 143.502 21.2465 144.063 24.8372 144.063C28.0047 144.063 31.0808 143.41 34.0768 142.105C37.0728 140.799 39.5428 138.784 41.4982 136.047L33.0362 129.726C31.9956 131.295 30.6691 132.509 29.0682 133.379C27.4673 134.249 25.6148 134.684 23.5336 134.684C21.7154 134.684 20.0116 134.318 18.4221 133.574C16.844 132.841 15.4604 131.799 14.294 130.482C13.1276 129.165 12.2013 127.596 11.5267 125.787C10.852 123.989 10.5204 121.996 10.5204 119.832C10.5204 117.668 10.852 115.732 11.5267 113.9C12.2013 112.079 13.1276 110.499 14.3283 109.182C15.5175 107.854 16.9355 106.823 18.5593 106.09C20.1831 105.358 21.9555 104.98 23.8652 104.98C25.7749 104.98 27.4559 105.3 28.9081 105.953C30.3604 106.606 31.584 107.545 32.5788 108.759L40.389 102.38C39.3942 101.121 38.2621 100.056 37.0042 99.1853C35.7463 98.315 34.4313 97.6164 33.0705 97.1011C31.7097 96.5744 30.3146 96.1965 28.9081 95.956C27.5016 95.7155 26.1408 95.601 24.8372 95.601C21.2351 95.601 17.9189 96.1621 14.8886 97.2958C11.8583 98.4295 9.22818 100.044 7.0212 102.151C4.81421 104.258 3.0875 106.812 1.8525 109.801C0.617498 112.801 0 116.145 0 119.832C0 123.519 0.617498 126.863 1.8525 129.863C3.0875 132.864 4.81421 135.417 7.0212 137.513C9.22818 139.62 11.8583 141.234 14.8886 142.368Z" fill="#0072BC"/>
<path d="M57.5647 112.079C56.8328 112.56 56.2039 113.099 55.6779 113.706C55.1633 114.312 54.7859 114.919 54.5686 115.526H54.4429V93.6428H44.6887V142.895H54.4429V127.126C54.4429 126.084 54.5115 125.088 54.6373 124.126C54.763 123.176 55.0375 122.317 55.4492 121.55C55.8608 120.794 56.4555 120.187 57.2445 119.729C58.0221 119.271 59.0398 119.042 60.2977 119.042C61.5555 119.042 62.5161 119.305 63.1908 119.821C63.8654 120.336 64.3572 121.011 64.6888 121.836C65.009 122.66 65.2148 123.565 65.272 124.538C65.3406 125.512 65.3749 126.462 65.3749 127.367V142.872H75.1291V125.409C75.1291 123.279 74.9804 121.309 74.6717 119.477C74.3629 117.656 73.7912 116.064 72.945 114.725C72.0988 113.373 70.9209 112.32 69.4001 111.564C67.8792 110.808 65.8895 110.419 63.4195 110.419C62.2531 110.419 61.1667 110.568 60.1719 110.877C59.177 111.186 58.308 111.576 57.5647 112.045V112.079Z" fill="#0072BC"/>
<path d="M85.9353 106.938C87.5019 106.938 88.8284 106.388 89.9376 105.277C91.0468 104.167 91.5957 102.838 91.5957 101.269C91.5957 99.7006 91.0468 98.3722 89.9376 97.2614C88.8284 96.1507 87.5019 95.601 85.9353 95.601C84.3687 95.601 83.0422 96.1507 81.933 97.2614C80.8238 98.3722 80.2749 99.7006 80.2749 101.269C80.2749 102.838 80.8238 104.167 81.933 105.277C83.0422 106.388 84.3687 106.938 85.9353 106.938Z" fill="#0072BC"/>
<path d="M90.8067 111.232H81.0525V142.895H90.8067V111.232Z" fill="#0072BC"/>
<path d="M106.61 93.6428H96.8559V142.895H106.61V93.6428Z" fill="#0072BC"/>
<path d="M115.621 139.082C116.993 140.536 118.628 141.67 120.538 142.471C122.448 143.273 124.575 143.674 126.908 143.674C127.994 143.674 129.046 143.525 130.064 143.216C131.081 142.906 132.019 142.517 132.865 142.047C133.711 141.567 134.443 141.04 135.072 140.456C135.701 139.872 136.216 139.299 136.605 138.727H136.73V142.895H145.707V93.6428H135.953V114.622H135.827C134.695 113.099 133.254 112.022 131.504 111.392C129.743 110.763 127.845 110.453 125.81 110.453C123.557 110.453 121.533 110.923 119.761 111.85C117.977 112.789 116.479 114.038 115.244 115.595C114.009 117.164 113.048 118.95 112.385 120.966C111.71 122.981 111.379 125.1 111.379 127.321C111.379 129.714 111.745 131.902 112.488 133.906C113.22 135.91 114.272 137.627 115.644 139.082H115.621ZM123.168 121.263C124.54 119.786 126.45 119.053 128.932 119.053C131.413 119.053 133.323 119.798 134.695 121.263C136.056 122.741 136.742 124.676 136.742 127.058C136.742 129.44 136.056 131.375 134.695 132.852C133.323 134.329 131.413 135.062 128.932 135.062C126.45 135.062 124.54 134.329 123.168 132.852C121.807 131.375 121.121 129.44 121.121 127.058C121.121 124.676 121.807 122.741 123.168 121.263Z" fill="#0072BC"/>
<path d="M174.661 119.706V110.785C174.181 110.659 173.666 110.568 173.094 110.522C172.534 110.476 171.962 110.453 171.402 110.453C169.229 110.453 167.434 110.946 166.004 111.919C164.575 112.892 163.34 114.358 162.299 116.316H162.174V111.232H152.419V142.895H162.174V129.669C162.174 128.1 162.265 126.668 162.437 125.374C162.608 124.069 162.986 122.958 163.58 122.019C164.163 121.08 164.998 120.359 166.084 119.832C167.171 119.305 168.646 119.053 170.51 119.053C171.242 119.053 171.951 119.111 172.625 119.214C173.3 119.328 173.975 119.488 174.672 119.706H174.661Z" fill="#0072BC"/>
<path d="M180.744 139.15C182.322 140.605 184.198 141.727 186.336 142.506C188.486 143.284 190.773 143.674 193.197 143.674C195.759 143.674 198.229 143.124 200.607 142.047C202.997 140.96 204.964 139.425 206.531 137.421L199.704 132.405C198.881 133.539 197.92 134.455 196.811 135.177C195.702 135.898 194.352 136.253 192.74 136.253C190.83 136.253 189.229 135.703 187.926 134.593C186.622 133.482 185.776 131.993 185.387 130.127H208.029V127.069C208.029 124.55 207.686 122.271 206.988 120.233C206.291 118.194 205.307 116.442 204.026 114.988C202.746 113.534 201.19 112.412 199.338 111.633C197.497 110.854 195.45 110.465 193.186 110.465C190.762 110.465 188.475 110.854 186.325 111.633C184.175 112.412 182.311 113.534 180.733 114.988C179.155 116.442 177.908 118.194 176.994 120.233C176.079 122.271 175.633 124.55 175.633 127.069C175.633 129.588 176.09 131.867 176.994 133.906C177.908 135.944 179.155 137.696 180.733 139.15H180.744ZM185.947 121.229C186.268 120.508 186.725 119.889 187.308 119.34C187.891 118.801 188.6 118.355 189.424 118C190.247 117.656 191.196 117.473 192.282 117.473C194.066 117.473 195.519 118.057 196.639 119.236C197.771 120.405 198.309 121.824 198.263 123.473H185.387C185.433 122.695 185.616 121.939 185.936 121.229H185.947Z" fill="#0072BC"/>
<path d="M243.295 142.895V125.432C243.295 123.302 243.146 121.332 242.837 119.5C242.529 117.679 241.957 116.087 241.111 114.748C240.264 113.396 239.087 112.343 237.566 111.587C236.045 110.831 234.055 110.442 231.585 110.442C230.419 110.442 229.332 110.591 228.338 110.9C227.343 111.209 226.451 111.598 225.673 112.068C224.896 112.549 224.221 113.087 223.661 113.694C223.1 114.301 222.666 114.908 222.357 115.515H222.231V111.221H212.866V142.883H222.62V127.115C222.62 126.073 222.689 125.077 222.814 124.115C222.94 123.164 223.215 122.305 223.626 121.538C224.038 120.782 224.633 120.175 225.41 119.717C226.188 119.259 227.205 119.03 228.463 119.03C229.721 119.03 230.682 119.294 231.356 119.809C232.031 120.324 232.523 121 232.854 121.824C233.175 122.649 233.38 123.554 233.438 124.527C233.506 125.5 233.541 126.451 233.541 127.355V142.861H243.295V142.895Z" fill="#0072BC"/>
<path d="M262.357 96.769H252.992L248.166 115.148H256.502L262.357 96.769Z" fill="#0072BC"/>
<path d="M285.811 128.466C285.01 127.275 283.993 126.325 282.758 125.638C281.523 124.939 280.196 124.435 278.79 124.103C277.383 123.783 276.057 123.473 274.822 123.187C273.587 122.901 272.569 122.58 271.768 122.214C270.968 121.847 270.568 121.275 270.568 120.485C270.568 119.534 270.956 118.859 271.734 118.469C272.512 118.08 273.312 117.885 274.135 117.885C276.48 117.885 278.366 118.778 279.796 120.553L285.776 114.622C284.301 113.053 282.506 111.976 280.379 111.369C278.252 110.763 276.148 110.453 274.067 110.453C272.42 110.453 270.796 110.659 269.184 111.072C267.583 111.484 266.154 112.125 264.919 112.996C263.684 113.866 262.689 114.977 261.923 116.316C261.168 117.668 260.779 119.271 260.779 121.137C260.779 123.13 261.179 124.733 261.98 125.924C262.78 127.115 263.798 128.043 265.033 128.695C266.268 129.348 267.595 129.84 269.001 130.161C270.408 130.482 271.734 130.791 272.969 131.077C274.204 131.363 275.222 131.707 276.022 132.119C276.823 132.531 277.223 133.15 277.223 133.974C277.223 134.845 276.766 135.44 275.862 135.761C274.947 136.081 273.93 136.253 272.809 136.253C271.334 136.253 270.042 135.955 268.944 135.371C267.835 134.787 266.828 133.929 265.914 132.795L259.99 139.379C261.545 140.983 263.455 142.105 265.719 142.735C267.972 143.364 270.202 143.685 272.42 143.685C274.113 143.685 275.828 143.525 277.555 143.193C279.293 142.872 280.848 142.299 282.243 141.498C283.627 140.696 284.77 139.631 285.662 138.303C286.554 136.975 287 135.291 287 133.253C287 131.215 286.6 129.657 285.799 128.466H285.811Z" fill="#0072BC"/>
</svg>
